<svg xmlns="http://www.w3.org/2000/svg" width="32" height="32" viewBox="0 0 32 32" aria-hidden="true" role="img">
    <rect width="32" height="32" fill="none" /> <!-- Plain background -->
    <path
        d="M16 4C10.477 4 6 6.686 6 10c0 2.209 1.879 3.91 4.5 4.751 2.32.738 5.155 1.107 5.155 3.249 0 1.779-2.065 2.5-4 2.5-1.91 0-3.5-.824-4.5-1.836V22c0 3.314 4.477 6 10 6s10-2.686 10-6c0-2.686-3.064-4.398-5.5-5.249-2.32-.738-5.155-1.107-5.155-3.249 0-1.779 2.065-2.5 4-2.5 1.91 0 3.5.824 4.5 1.836V10c0-3.314-4.477-6-10-6z"
        fill="white" />
</svg>
